<svg xmlns="http://www.w3.org/2000/svg" version="1.1" viewBox="4 2 91 94" width="150" height="150">
  <path d="m26.348 16.379c-1.1055 0-2-0.89453-2-2 0-1.1055 0.89453-2 2-2h28.789c1.1055 0 2 0.89453 2 2 0 1.1055-0.89453 2-2 2zm0 48.023c-1.1055 0-2-0.89453-2-2 0-1.1055 0.89453-2 2-2h18.605c1.1055 0 2 0.89453 2 2 0 1.1055-0.89453 2-2 2zm0-12.008c-1.1055 0-2-0.89453-2-2s0.89453-2 2-2h28.789c1.1055 0 2 0.89453 2 2s-0.89453 2-2 2zm0-12.004c-1.1055 0-2-0.89453-2-2s0.89453-2 2-2h28.789c1.1055 0 2 0.89453 2 2s-0.89453 2-2 2zm0-12.008c-1.1055 0-2-0.89453-2-2 0-1.1055 0.89453-2 2-2h28.789c1.1055 0 2 0.89453 2 2 0 1.1055-0.89453 2-2 2zm44.168-19.09v14.336l10.223 3.8555c1.0312 0.38672 1.5508 1.5391 1.1641 2.5703l-11.387 30.191v15.746c0 1.1055-0.89453 2-2 2h-4.6953l-2.2695 6.0195 34.434-7.2266-14.645-69.766zm0 18.602v21.047l6.9492-18.426zm-10.957 50.098h-46.586c-1.1055 0-2-0.89453-2-2v-15.414l-6.9492 18.426 48.289 18.211 7.25-19.223zm6.957-75.207h-51.543v71.203h51.543z"/>
</svg>