<svg xmlns="http://www.w3.org/2000/svg"
  xmlns:xlink="http://www.w3.org/1999/xlink" 
  version="1.1" viewBox="0 6 48 37" width="150" height="150" xml:space="preserve">
  <g>
    <path d="M10 11C7.75371 11 6 13.046 6 15.5C6 17.954 7.75371 20 10 20C12.2463 20 14 17.954 14 15.5C14 13.046 12.2463 11 10 11ZM21 11C19.3431 11 18 12.3431 18 14L18 19C18 19.5485 18.4515 19.9947 19 20C19.5646 20.0054 22.9354 20.0258 23.5 20.0312C23.6287 20.0325 23.7553 20.0159 23.875 19.9688L31.7188 16.875C31.7545 16.8673 31.7833 16.8852 31.8438 16.875C32.3258 16.7941 32.8253 16.7956 33.2812 16.9375C33.792 17.0965 34.174 17.4212 34.4375 17.9688C34.9912 19.1197 34.861 19.8039 34.3125 20.3125C34.1171 20.4936 33.9051 20.5888 33.8125 20.625L27.0312 23.75C26.7583 23.876 26.5748 24.1151 26.5 24.4062C26.477 24.4957 26.4237 24.6761 26.3438 24.9062C26.2097 25.292 26.0301 25.6787 25.8438 26.0312C25.6984 26.3062 25.5655 26.5497 25.4062 26.75C25.245 26.9529 25.0329 27.1601 24.8125 27.3438C24.5442 27.5673 24.2603 27.7431 23.9688 27.9062C23.8586 27.9679 23.8173 27.9987 23.75 28.0312L19 28C18.4461 27.9976 18 28.446 18 29L18 34C18 35.6569 19.3431 37 21 37L44 37C45.6569 37 47 35.6569 47 34L47 14C47 12.3431 45.6569 11 44 11L21 11ZM32.375 18.0625C32.138 17.966 31.8795 17.9866 31.625 18.0938L23.4062 21.5312C23.0029 21.3125 22.6495 21 22.1562 21C22.1562 21 8.35547 21 8 21C6.98559 21 5.98481 21.2403 5.03125 21.6875C4.01217 22.1654 3.14987 22.9337 2.40625 23.9375C1.83574 24.7087 1.49431 25.2996 1.28125 26C1.08589 26.6422 1.00001 27.3038 1 28L1 33.25C0.999999 34.8568 2.14318 36.125 3.75 36.125C3.75 36.125 4.19105 36.066 4.5 35.9688C4.80895 35.8714 5 35.75 5 35.75L5 36C5 36.5523 5.44772 37 6 37L14 37C14.5523 37 15 36.5523 15 36L15 27L22.1562 27C23.7327 27 25 25.7327 25 24.1562L25 23.8438C25 23.574 24.7881 23.4031 24.7188 23.1562L32.375 19.9062C32.884 19.6919 33.1206 19.134 32.9062 18.625C32.7991 18.3705 32.612 18.159 32.375 18.0625Z"/>
  </g>
</svg>