<svg xmlns="http://www.w3.org/2000/svg" viewBox="8 5 32 43" version="1.1" 
  fill-rule="evenodd" clip-rule="evenodd" stroke-linejoin="round" stroke-miterlimit="2"
  width="150" height="150">
  <g transform="matrix(1,0,0,1,-432,-144)">
    <g>
      <path d="M456,169C456,169 456,169 456,169C453.083,169 450.285,170.159 448.222,172.222C446.159,174.285 445,177.083 445,180C445,180 445,182 445,182C445,182.265 445.105,182.52 445.293,182.707C445.48,182.895 445.735,183 446,183L466,183C466.265,183 466.52,182.895 466.707,182.707C466.895,182.52 467,182.265 467,182C467,182 467,180 467,180C467,177.083 465.841,174.285 463.778,172.222C461.715,170.159 458.917,169 456,169Z"/>
      <path d="M442,173C438.134,173 435,176.134 435,180C435,180 435,182 435,182C435,182.552 435.448,183 436,183L443.172,183C443.059,182.682 443,182.344 443,182L443,180C443,177.716 443.601,175.494 444.715,173.546C443.88,173.194 442.963,173 442,173Z"/>
      <path d="M470,173C469.037,173 468.12,173.194 467.285,173.546C468.399,175.494 469,177.716 469,180L469,182C469,182.344 468.941,182.682 468.828,183L476,183C476.552,183 477,182.552 477,182C477,182 477,180 477,180C477,176.134 473.866,173 470,173Z"/>
      <path d="M442,171C439.24,171 437,168.76 437,166C437,163.24 439.24,161 442,161C444.76,161 447,163.24 447,166C447,168.76 444.76,171 442,171Z"/>
      <path d="M470,171C467.24,171 465,168.76 465,166C465,163.24 467.24,161 470,161C472.76,161 475,163.24 475,166C475,168.76 472.76,171 470,171Z"/>
      <path d="M456,167C452.137,167 449,163.863 449,160C449,156.137 452.137,153 456,153C459.863,153 463,156.137 463,160C463,163.863 459.863,167 456,167Z"/>
    </g>
  </g>
</svg>